<?xml version="1.0" standalone="no"?>
<!DOCTYPE svg PUBLIC "-//W3C//DTD SVG 20010904//EN"
 "http://www.w3.org/TR/2001/REC-SVG-20010904/DTD/svg10.dtd">
<svg version="1.0" xmlns="http://www.w3.org/2000/svg"
 width="128.000000pt" height="128.000000pt" viewBox="0 0 128.000000 128.000000"
 preserveAspectRatio="xMidYMid meet">

<g transform="translate(0.000000,128.000000) scale(0.100000,-0.100000)"
fill="#444444" stroke="none">
<path d="M167 1246 c-56 -21 -103 -61 -126 -109 -21 -44 -22 -53 -19 -499 l3
-454 28 -42 c15 -23 46 -54 69 -69 l42 -28 460 -3 c405 -2 466 -1 503 13 50
19 109 83 124 135 6 22 9 194 7 481 l-3 446 -29 42 c-16 23 -50 54 -75 69
l-46 27 -450 2 c-359 2 -458 0 -488 -11z m1033 -959 c-1 -37 -48 -94 -99 -120
l-55 -27 -453 2 c-256 2 -453 7 -452 12 0 5 -5 13 -13 18 -10 7 -10 11 -1 14
7 3 9 12 6 20 -3 8 0 14 6 14 6 0 11 6 11 14 0 10 16 17 45 22 25 3 42 10 39
16 -4 5 162 9 433 9 429 -1 478 0 487 10 11 10 46 7 46 -4z"/>
</g>
</svg>
